<?xml version="1.0" encoding="utf-8"?>

<svg version="1.1" xmlns="http://www.w3.org/2000/svg" x="0px" y="0px" width="133.088px" height="118.278px" viewbox="0 0 133.088 118.278" enable-background="new 0 0 133.088 118.278">
<switch>
	<g>
		<g opacity="0.7">
			
				<image overflow="visible" opacity="0.75" width="172" height="168" transform="matrix(0.24 0 0 0.24 76.1792 62.3145)">
			</image>
			<g>
				<ellipse fill="#F84B0F" cx="93.808" cy="79.453" rx="11.629" ry="11.14"></ellipse>
			</g>
		</g>
		<g opacity="0.9">
			
				<image overflow="visible" opacity="0.75" width="195" height="194" transform="matrix(0.24 0 0 0.24 86.2886 29.168)">
			</image>
			<g>
				<ellipse fill="#F84B0F" cx="106.664" cy="49.345" rx="14.375" ry="14.177"></ellipse>
			</g>
		</g>
		<g>
			
				<image overflow="visible" opacity="0.5" width="430" height="430" transform="matrix(0.24 0 0 0.24 -6 -6)">
			</image>
			<g>
				<g>
					<circle fill="#F84B0F" cx="42.52" cy="42.52" r="42.52"></circle>
					<path fill="#FFFFFF" d="M26.973,29.085c0,2.541-2.061,4.599-4.603,4.599c-2.538,0-4.595-2.058-4.595-4.599
						c0-2.539,2.057-4.599,4.595-4.599C24.912,24.486,26.973,26.546,26.973,29.085z"></path>
					<rect x="48.613" y="36.085" fill="#FFFFFF" width="5.001" height="24"></rect>
					<rect x="16.113" y="36.085" fill="#FFFFFF" width="5" height="24"></rect>
					<rect x="11.113" y="36.085" fill="#FFFFFF" width="10" height="5"></rect>
					<g>
						<rect x="24.113" y="36.085" fill="#FFFFFF" width="5" height="24"></rect>
						<rect x="24.113" y="36.085" fill="#FFFFFF" width="9" height="5"></rect>
					</g>
					<rect x="62.613" y="37.085" fill="#FFFFFF" width="5" height="23"></rect>
					<path fill="#FFFFFF" d="M45.914,44.038c0-4.619-1.822-7.953-9.404-7.953h-0.631l-0.019,5h0.422
						c3.024,0,4.261,0.733,4.261,3.531c0.003,2.732-1.297,3.469-4.194,3.469h-4.235v4.269l3.527-0.002l4.373,8.004l5.652-0.003
						l-4.807-8.629C44.861,50.454,45.914,47.354,45.914,44.038z"></path>
					<rect x="56.113" y="36.085" fill="#FFFFFF" width="18" height="5"></rect>
				</g>
			</g>
		</g>
		<g opacity="0.4">
			
				<image overflow="visible" opacity="0.75" width="140" height="140" transform="matrix(0.24 0 0 0.24 61.6133 81.251)">
			</image>
			<g>
				<ellipse fill="#F84B0F" cx="75.35" cy="94.973" rx="7.736" ry="7.722"></ellipse>
			</g>
		</g>
		<g opacity="0.1">
			
				<image overflow="visible" opacity="0.75" width="121" height="120" transform="matrix(0.24 0 0 0.24 41.9624 89.4785)">
			</image>
			<g>
				<ellipse fill="#F84B0F" cx="53.405" cy="100.795" rx="5.443" ry="5.316"></ellipse>
			</g>
		</g>
	</g>
</switch>

	
	
	
	
	
	
	
	
	
	
	
	
	
	
	
	
	
	
	
	
	
	
	
	
	
	
	
	
	
	
	
	
	
	
	
	
	
	
	
	
	
	
	
	
	
	
	
	
	
	
	
	
	
	
	
	
	
	
	
	
	
	
	

</svg>
